<svg xmlns="http://www.w3.org/2000/svg" viewBox="0 0 780 444" width="780" height="444" role="img" aria-label="Deteccion por familia de ataque: OCSVM frente a Isolation Forest">
<title>Deteccion por familia de ataque: OCSVM frente a Isolation Forest</title>
<style>text{font-family:ui-monospace,"Cascadia Code","Roboto Mono",monospace}.t{font-size:15px;font-weight:700;fill:#131b2e}.s{font-size:11px;fill:#5b6b8c}.l{font-size:11px;fill:#131b2e}.v{font-size:11px;font-weight:700}</style>
<rect width="780" height="444" fill="#ffffff"/>
<text x="24" y="30" class="t">Detección por familia: dónde gana OCSVM y dónde pierde</text>
<text x="24" y="50" class="s">Cada familia evaluada una sola vez, con modelo y umbral ya congelados. n = ventanas de esa familia.</text>
<rect x="268" y="66" width="12" height="12" fill="#0f8a7d"/>
<text x="286" y="76" class="s">OCSVM (modelo congelado)</text>
<rect x="478" y="66" width="12" height="12" fill="#5b6b8c"/>
<text x="496" y="76" class="s">Isolation Forest (if_primary_weighted)</text>
<text x="254" y="109" class="l" text-anchor="end">UDP-PROBE-50</text>
<text x="254" y="120" class="s" text-anchor="end">n=40</text>
<rect x="268" y="98" width="362.0" height="9" fill="#0f8a7d" rx="2"/>
<rect x="268" y="110" width="0.0" height="9" fill="#5b6b8c" rx="2"/>
<text x="642" y="107" class="v" fill="#131b2e">40/40</text>
<text x="692" y="107" class="s">100.0%</text>
<text x="642" y="119" class="s" fill="#b91c1c">0/40 punto ciego</text>
<text x="254" y="139" class="l" text-anchor="end">SYN-RATE-50</text>
<text x="254" y="150" class="s" text-anchor="end">n=31</text>
<rect x="268" y="128" width="303.6" height="9" fill="#0f8a7d" rx="2"/>
<rect x="268" y="140" width="0.0" height="9" fill="#5b6b8c" rx="2"/>
<text x="642" y="137" class="v" fill="#131b2e">26/31</text>
<text x="692" y="137" class="s">83.9%</text>
<text x="642" y="149" class="s" fill="#b91c1c">0/31 punto ciego</text>
<text x="254" y="169" class="l" text-anchor="end">PASSWORD-SPRAY-50</text>
<text x="254" y="180" class="s" text-anchor="end">n=29</text>
<rect x="268" y="158" width="199.7" height="9" fill="#0f8a7d" rx="2"/>
<rect x="268" y="170" width="299.6" height="9" fill="#5b6b8c" rx="2"/>
<text x="642" y="167" class="v" fill="#b91c1c">16/29</text>
<text x="692" y="167" class="s">55.2%</text>
<text x="642" y="179" class="s">24/29</text>
<text x="254" y="199" class="l" text-anchor="end">DNS</text>
<text x="254" y="210" class="s" text-anchor="end">n=21</text>
<rect x="268" y="188" width="362.0" height="9" fill="#0f8a7d" rx="2"/>
<rect x="268" y="200" width="362.0" height="9" fill="#5b6b8c" rx="2"/>
<text x="642" y="197" class="v" fill="#131b2e">21/21</text>
<text x="692" y="197" class="s">100.0%</text>
<text x="642" y="209" class="s">21/21</text>
<text x="254" y="229" class="l" text-anchor="end">PORT-SCAN</text>
<text x="254" y="240" class="s" text-anchor="end">n=20</text>
<rect x="268" y="218" width="362.0" height="9" fill="#0f8a7d" rx="2"/>
<rect x="268" y="230" width="362.0" height="9" fill="#5b6b8c" rx="2"/>
<text x="642" y="227" class="v" fill="#131b2e">20/20</text>
<text x="692" y="227" class="s">100.0%</text>
<text x="642" y="239" class="s">20/20</text>
<text x="254" y="259" class="l" text-anchor="end">PORT-SCAN-WIDE</text>
<text x="254" y="270" class="s" text-anchor="end">n=20</text>
<rect x="268" y="248" width="362.0" height="9" fill="#0f8a7d" rx="2"/>
<rect x="268" y="260" width="362.0" height="9" fill="#5b6b8c" rx="2"/>
<text x="642" y="257" class="v" fill="#131b2e">20/20</text>
<text x="692" y="257" class="s">100.0%</text>
<text x="642" y="269" class="s">20/20</text>
<text x="254" y="289" class="l" text-anchor="end">AUTH-FAIL-50</text>
<text x="254" y="300" class="s" text-anchor="end">n=6</text>
<rect x="268" y="278" width="181.0" height="9" fill="#0f8a7d" rx="2"/>
<rect x="268" y="290" width="301.7" height="9" fill="#5b6b8c" rx="2"/>
<text x="642" y="287" class="v" fill="#b91c1c">3/6</text>
<text x="692" y="287" class="s">50.0%</text>
<text x="642" y="299" class="s">5/6</text>
<text x="254" y="319" class="l" text-anchor="end">DNS-NX-200</text>
<text x="254" y="330" class="s" text-anchor="end">n=6</text>
<rect x="268" y="308" width="362.0" height="9" fill="#0f8a7d" rx="2"/>
<rect x="268" y="320" width="362.0" height="9" fill="#5b6b8c" rx="2"/>
<text x="642" y="317" class="v" fill="#131b2e">6/6</text>
<text x="692" y="317" class="s">100.0%</text>
<text x="642" y="329" class="s">6/6</text>
<text x="254" y="349" class="l" text-anchor="end">SYN-RATE-10</text>
<text x="254" y="360" class="s" text-anchor="end">n=6</text>
<rect x="268" y="338" width="362.0" height="9" fill="#0f8a7d" rx="2"/>
<rect x="268" y="350" width="60.3" height="9" fill="#5b6b8c" rx="2"/>
<text x="642" y="347" class="v" fill="#131b2e">6/6</text>
<text x="692" y="347" class="s">100.0%</text>
<text x="642" y="359" class="s">1/6</text>
<text x="24" y="388" class="s">OCSVM resuelve dos puntos ciegos totales de IF (SYN-RATE-50 y UDP-PROBE-50: 0/31 y 0/40) …</text>
<text x="24" y="404" class="s">… pero paga ese avance en las familias de autenticación (PASSWORD-SPRAY 16/29, AUTH-FAIL 3/6), donde IF era superior.</text>
<text x="24" y="422" class="s">Fuente: artifacts/model/manifest.json (evaluation.*.anomalies.by_profile)</text>
</svg>
